IKResults
version=1
nRows=9
nColumns=63
inDegrees=yes

Units are S.I. units (second, meters, Newtons, ...)
If the header above contains a line with 'inDegrees', this indicates whether rotational values are in degrees (yes) or radians (no).

endheader
time	pelvis_tilt	pelvis_list	pelvis_rotation	pelvis_tx	pelvis_ty	pelvis_tz	hip_flexion_r	hip_adduction_r	hip_rotation_r	knee_angle_r	knee_angle_r_beta	ankle_angle_r	subtalar_angle_r	mtp_angle_r	hip_flexion_l	hip_adduction_l	hip_rotation_l	knee_angle_l	knee_angle_l_beta	ankle_angle_l	subtalar_angle_l	mtp_angle_l	L5_S1_Flex_Ext	L5_S1_Lat_Bending	L5_S1_axial_rotation	L4_L5_Flex_Ext	L4_L5_Lat_Bending	L4_L5_axial_rotation	L3_L4_Flex_Ext	L3_L4_Lat_Bending	L3_L4_axial_rotation	L2_L3_Flex_Ext	L2_L3_Lat_Bending	L2_L3_axial_rotation	L1_L2_Flex_Ext	L1_L2_Lat_Bending	L1_L2_axial_rotation	L1_T12_Flex_Ext	L1_T12_Lat_Bending	L1_T12_axial_rotation	Abs_r3	Abs_r2	Abs_r1	Abs_t1	Abs_t2	neck_flexion	neck_bending	neck_rotation	arm_flex_r	arm_add_r	arm_rot_r	elbow_flex_r	pro_sup_r	wrist_flex_r	wrist_dev_r	arm_flex_l	arm_add_l	arm_rot_l	elbow_flex_l	pro_sup_l	wrist_flex_l	wrist_dev_l
      4.03333333	      5.68845132	    -12.70344886	    -52.98237248	     -0.69437109	      0.59061369	     -0.33001074	      7.32983304	     -0.98326425	     -0.14571820	     59.94149733	      1.04617649	      0.00000000	      0.00000000	      0.00000000	      3.56519060	    -28.55050313	     15.06968172	    119.96158246	      2.09372459	     18.65732575	    -19.87120296	      0.00000000	     -6.50287067	      0.24598302	      0.40074502	    -12.07648111	      0.32715742	      0.42579158	    -10.68356622	      0.59808312	      0.42579158	     -7.43213088	      0.59808312	      0.35065189	     -6.03856570	      0.50160858	      0.32560533	     -3.71574030	      0.38102770	      0.30055877	    -46.44935487	      2.78260914	      2.22882358	      0.00000000	      0.00000000	     28.46029377	     -8.33541675	     -1.99225075	     25.05492138	      0.25551154	     -9.69998582	     20.74582654	     89.99559364	      0.00000000	      0.00000000	     36.21274292	    -10.01073711	     52.05404720	     26.92902758	     89.99559364	      0.00000000	      0.00000000
      4.06666667	      6.45418297	    -12.71415615	    -52.19062285	     -0.69271270	      0.59195940	     -0.33058099	      6.39033471	     -2.00686376	     -0.15190870	     59.94276494	      1.04619861	      0.00000000	      0.00000000	      0.00000000	      3.42427447	    -27.33134853	     15.66944275	    119.96013779	      2.09369938	     16.71747794	    -19.86613120	      0.00000000	     -6.54026402	      0.20881063	      0.28529049	    -12.14592432	      0.27771814	      0.30312114	    -10.74499976	      0.50770217	      0.30312114	     -7.47486775	      0.50770217	      0.24962918	     -6.07328917	      0.42580664	      0.23179852	     -3.73710686	      0.32344767	      0.21396787	    -46.71645189	      2.36210765	      1.58670011	      0.00000000	      0.00000000	     28.45374448	     -9.78363951	     -5.34789514	     24.86949891	      0.78234568	    -12.76661292	     21.03228601	     89.99559364	      0.00000000	      0.00000000	     36.03590317	    -10.17312300	     48.56272410	     27.03485933	     89.99559364	      0.00000000	      0.00000000
      4.10000000	      6.60836692	    -12.64560061	    -51.94159466	     -0.69130848	      0.59227769	     -0.33048187	      5.85550216	     -2.54906611	     -0.15187199	     59.94286083	      1.04620028	      0.00000000	      0.00000000	      0.00000000	      3.43196964	    -26.81437250	     15.77536548	    119.95848040	      2.09367045	     15.08015948	    -19.86173001	      0.00000000	     -6.49678248	      0.21063504	      0.24411858	    -12.06517475	      0.28014460	      0.25937599	    -10.67356394	      0.51213803	      0.25937599	     -7.42517270	      0.51213803	      0.21360376	     -6.03291221	      0.42952697	      0.19834635	     -3.71226151	      0.32627368	      0.18308894	    -46.40586759	      2.38274569	      1.35771431	      0.00000000	      0.00000000	     28.44589916	    -10.10642566	     -5.38109659	     24.65486127	      0.75182469	    -12.92549595	     21.05816775	     89.99559364	      0.00000000	      0.00000000	     36.10102561	    -10.55415975	     48.31030830	     26.99525515	     89.99559364	      0.00000000	      0.00000000
      4.13333333	      7.09637689	    -12.42189957	    -51.30810046	     -0.68979185	      0.59264730	     -0.33062272	      5.03653762	     -3.58961547	     -0.14887053	     59.94302609	      1.04620317	      0.00000000	      0.00000000	      0.00000000	      3.55078572	    -25.95117634	     16.15320398	    119.95709774	      2.09364632	     13.85776280	    -19.85987732	      0.00000000	     -6.47211943	      0.18374830	      0.12626784	    -12.01937299	      0.24438523	      0.13415958	    -10.63304501	      0.44676561	      0.13415958	     -7.39698530	      0.44676561	      0.11048436	     -6.01001010	      0.37469952	      0.10259262	     -3.69816904	      0.28462611	      0.09470088	    -46.22970187	      2.07859747	      0.70226383	      0.00000000	      0.00000000	     28.44141311	    -10.32380879	     -5.75888599	     24.42970699	      0.89525739	    -13.34235555	     21.14168546	     89.99559364	      0.00000000	      0.00000000	     36.13545205	    -11.08359314	     47.65069867	     27.00007028	     89.99559364	      0.00000000	      0.00000000
      4.16666667	      7.58142792	    -12.07070303	    -50.57669328	     -0.68835497	      0.59266507	     -0.33064633	      4.07344408	     -4.73493114	     -0.14682340	     59.94334028	      1.04620865	      0.00000000	      0.00000000	      0.00000000	      3.75449238	    -25.12784643	     16.56073042	    119.95541032	      2.09361687	     13.39272531	    -19.85683605	      0.00000000	     -6.43238795	      0.14697143	     -0.00969338	    -11.94558765	      0.19547200	     -0.01029922	    -10.56777016	      0.35734633	     -0.01029922	     -7.35157618	      0.35734633	     -0.00848171	     -5.97311545	      0.29970414	     -0.00787587	     -3.67546647	      0.22765874	     -0.00727003	    -45.94590386	      1.66257021	     -0.05391167	      0.00000000	      0.00000000	     28.43435464	    -10.31896313	     -6.35979501	     24.17846975	      1.21313765	    -14.46051017	     21.17625952	     89.99559364	      0.00000000	      0.00000000	     35.99916593	    -11.64905509	     46.45551120	     27.08488325	     89.99559364	      0.00000000	      0.00000000
      4.20000000	      7.48398915	    -11.96261072	    -50.54643133	     -0.68774312	      0.59226852	     -0.33024852	      3.43906169	     -5.10360581	     -0.15014770	     59.94337445	      1.04620925	      0.00000000	      0.00000000	      0.00000000	      3.82225119	    -25.22722719	     16.33627000	    119.95312140	      2.09357692	     13.18604336	    -19.85543091	      0.00000000	     -6.36802033	      0.14977037	      0.00230687	    -11.82605056	      0.19919460	      0.00245105	    -10.46202060	      0.36415169	      0.00245105	     -7.27801044	      0.36415169	      0.00201851	     -5.91334368	      0.30541175	      0.00187434	     -3.63868682	      0.23199431	      0.00173016	    -45.48613242	      1.69423242	      0.01283014	      0.00000000	      0.00000000	     28.42961886	    -10.34244335	     -6.35819672	     23.94556332	      1.17431256	    -14.56637496	     21.13032859	     89.99559364	      0.00000000	      0.00000000	     35.97654968	    -12.07124593	     46.35028409	     26.93659582	     89.99559364	      0.00000000	      0.00000000
      4.23333333	      7.57401368	    -11.08523524	    -50.44565472	     -0.68734320	      0.59096538	     -0.32946250	      3.28190572	     -6.20864509	     -0.13770835	     59.94371541	      1.04621520	      0.00000000	      0.00000000	      0.00000000	      4.45129612	    -24.63458303	     16.14266146	    119.95232627	      2.09356304	     13.12133249	    -19.85730172	      0.00000000	     -6.22400138	      0.08082225	     -0.05393795	    -11.55859296	      0.10749360	     -0.05730907	    -10.22541186	      0.19651123	     -0.05730907	     -7.11341118	      0.19651123	     -0.04719571	     -5.77960768	      0.16481274	     -0.04382458	     -3.55639439	      0.12519367	     -0.04045346	    -44.45741944	      0.91427749	     -0.29998669	      0.00000000	      0.00000000	     28.42233127	     -9.86973737	     -5.70846761	     23.44506848	      1.73334604	    -16.38089119	     21.34716863	     89.99559364	      0.00000000	      0.00000000	     35.55506210	    -12.70341601	     45.24876903	     26.98762206	     89.99559364	      0.00000000	      0.00000000
      4.26666667	      7.28367401	    -10.55783568	    -50.68748273	     -0.68732142	      0.58961526	     -0.32855682	      3.05563006	     -6.71463913	     -0.13963783	     59.94565673	      1.04624908	      0.00000000	      0.00000000	      0.00000000	      4.86041995	    -24.81085335	     15.62055522	    119.95079401	      2.09353630	     13.53416731	    -19.85929801	      0.00000000	     -6.08659889	      0.06084630	     -0.03431891	    -11.30342280	      0.08092557	     -0.03646384	     -9.99967332	      0.14794168	     -0.03646384	     -6.95637387	      0.14794168	     -0.03002905	     -5.65201573	      0.12407777	     -0.02788411	     -3.47788261	      0.09425091	     -0.02573918	    -43.47596723	      0.68830546	     -0.19087148	      0.00000000	      0.00000000	     28.41824483	     -9.44998829	     -4.21595113	     23.16172827	      3.16641015	    -24.67056884	     21.72450578	     89.99559364	      0.00000000	      0.00000000	     34.87357148	    -13.03524522	     43.06112148	     26.87605996	     89.99559364	      0.00000000	      0.00000000
      4.30000000	      7.11097921	    -10.20413584	    -50.79328094	     -0.68753988	      0.58865774	     -0.32788299	      2.47379453	     -7.15129389	     -0.14127856	     59.94571266	      1.04625006	      0.00000000	      0.00000000	      0.00000000	      5.14037609	    -25.07497547	     15.21421993	    119.94858867	      2.09349781	     14.19585029	    -19.86245291	      0.00000000	     -5.99159436	      0.03810305	     -0.00445155	    -11.12698988	      0.05067706	     -0.00472977	     -9.84359037	      0.09264377	     -0.00472977	     -6.84779319	      0.09264377	     -0.00389510	     -5.56379452	      0.07769975	     -0.00361688	     -3.42359701	      0.05902163	     -0.00333866	    -42.79735932	      0.43102937	     -0.02475817	      0.00000000	      0.00000000	     28.41489261	     -9.27028617	     -4.04464955	     22.86394379	      3.27339430	    -24.75527312	     21.73240029	     89.99559364	      0.00000000	      0.00000000	     34.71468472	    -13.45749677	     43.10245539	     26.58460563	     89.99559364	      0.00000000	      0.00000000
